<?xml version="1.0" encoding="us-ascii" standalone="no"?><svg xmlns="http://www.w3.org/2000/svg" xmlns:xlink="http://www.w3.org/1999/xlink" contentStyleType="text/css" height="526px" preserveAspectRatio="none" style="width:448px;height:526px;background:#FFFFFF;" version="1.1" viewBox="0 0 448 526" width="448px" zoomAndPan="magnify"><defs/><g><!--class BaseStep--><g id="elem_BaseStep"><rect codeLine="1" fill="#F1F1F1" height="239.2012" id="BaseStep" rx="2.5" ry="2.5" style="stroke:#181818;stroke-width:0.5;" width="122" x="168" y="7"/><ellipse cx="196.05" cy="23" fill="#A9DCDF" rx="11" ry="11" style="stroke:#181818;stroke-width:1.0;"/><path d="M196.425,22.9844 L194.4406,22.9844 L193.8469,25.5 Q193.7844,25.8438 193.7844,26.0313 Q193.7844,26.2969 193.8781,26.5625 Q193.9719,26.8281 193.9719,26.8281 L194.6438,26.8281 L194.6438,27.2344 L191.1906,27.2344 L191.1906,26.8281 L191.3781,26.8281 Q191.6438,26.8281 191.8469,26.6641 Q192.05,26.5 192.1125,26.1094 L194.7063,15.9375 L196.5813,15.3281 L199.2219,26.1094 Q199.3625,26.5 199.5578,26.6641 Q199.7531,26.8281 199.7531,26.8281 L200.2219,26.8281 L200.2219,27.2344 L196.3625,27.2344 L196.3625,26.8281 L196.6281,26.8281 Q197.0344,26.8281 197.0969,26.6641 Q197.1594,26.5 197.1594,26.375 Q197.1594,26.1094 197.0969,25.9063 L196.425,22.9844 Z M195.0344,17.0781 L195.0344,17.0781 L194.5813,22.5781 L196.3625,22.5781 L195.0344,17.0781 Z " fill="#000000"/><text fill="#000000" font-family="sans-serif" font-size="14" font-style="italic" lengthAdjust="spacing" textLength="61" x="212.95" y="29.4839">BaseStep</text><line style="stroke:#181818;stroke-width:0.5;" x1="169" x2="289" y1="39" y2="39"/><text fill="#000000" font-family="sans-serif" font-size="14" font-style="italic" lengthAdjust="spacing" textLength="63" x="174" y="59.0439">String text</text><text fill="#000000" font-family="sans-serif" font-size="14" font-style="italic" lengthAdjust="spacing" textLength="83" x="174" y="78.1641">Object layout</text><text fill="#000000" font-family="sans-serif" font-size="14" font-style="italic" lengthAdjust="spacing" textLength="74" x="174" y="97.2842">Step parent</text><text fill="#000000" font-family="sans-serif" font-size="14" font-style="italic" lengthAdjust="spacing" textLength="87" x="174" y="116.4043">Number index</text><text fill="#000000" font-family="sans-serif" font-size="14" font-style="italic" lengthAdjust="spacing" textLength="82" x="174" y="135.5244">Number level</text><text fill="#000000" font-family="sans-serif" font-size="14" lengthAdjust="spacing" text-decoration="underline" textLength="73" x="174" y="154.6445">Any canvas</text><text fill="#000000" font-family="sans-serif" font-size="14" lengthAdjust="spacing" text-decoration="underline" textLength="110" x="174" y="173.7646">StrategyLayout sl</text><line style="stroke:#181818;stroke-width:0.5;" x1="169" x2="289" y1="180.8408" y2="180.8408"/><text fill="#000000" font-family="sans-serif" font-size="14" font-style="italic" lengthAdjust="spacing" textLength="88" x="174" y="200.8848">void calcPos()</text><text fill="#000000" font-family="sans-serif" font-size="14" font-style="italic" lengthAdjust="spacing" textLength="91" x="174" y="220.0049">void calcSize()</text><text fill="#000000" font-family="sans-serif" font-size="14" font-style="italic" lengthAdjust="spacing" textLength="81" x="174" y="239.125">void render()</text></g><!--class Step--><g id="elem_Step"><rect codeLine="14" fill="#F1F1F1" height="67.1201" id="Step" rx="2.5" ry="2.5" style="stroke:#181818;stroke-width:0.5;" width="142" x="7" y="325"/><ellipse cx="59.25" cy="341" fill="#ADD1B2" rx="11" ry="11" style="stroke:#181818;stroke-width:1.0;"/><path d="M57.8281,346.3594 Q55.9688,346.3594 54.875,344.9688 Q53.7813,343.5781 53.7813,340.5938 Q53.7813,338.0625 54.9453,336.4063 Q56.1094,334.75 58.0938,334.75 Q59.5625,334.75 60.0313,334.875 Q60.5,335.0781 60.5,335.0781 Q60.5,335.0781 60.5,335.0078 Q60.5,334.9375 61.1094,334.0156 L62.1563,337.6719 L60.8281,338.0781 Q60.3594,336.5313 59.6953,335.8672 Q59.0313,335.2031 57.9688,335.2031 Q57.5781,335.2031 56.8125,336.7344 Q56.0469,338.2656 56.0469,340.5156 Q56.0469,342.9844 56.7109,344.375 Q57.375,345.7656 57.9063,345.7656 Q58.9688,345.7656 59.7266,345 Q60.4844,344.2344 60.8281,342.5781 L62.1563,343.1719 Q61.8281,344.5781 60.9297,345.4688 Q60.0313,346.3594 57.8281,346.3594 Z " fill="#000000"/><text fill="#000000" font-family="sans-serif" font-size="14" lengthAdjust="spacing" textLength="29" x="79.75" y="347.4839">Step</text><line style="stroke:#181818;stroke-width:0.5;" x1="8" x2="148" y1="357" y2="357"/><text fill="#000000" font-family="sans-serif" font-size="14" lengthAdjust="spacing" textLength="130" x="13" y="377.0439">BaseStep[] substeps</text><line style="stroke:#181818;stroke-width:0.5;" x1="8" x2="148" y1="384.1201" y2="384.1201"/></g><!--class LeafStep--><g id="elem_LeafStep"><rect codeLine="18" fill="#F1F1F1" height="48" id="LeafStep" rx="2.5" ry="2.5" style="stroke:#181818;stroke-width:0.5;" width="89" x="184.5" y="334.5"/><ellipse cx="199.5" cy="350.5" fill="#ADD1B2" rx="11" ry="11" style="stroke:#181818;stroke-width:1.0;"/><path d="M198.0781,355.8594 Q196.2188,355.8594 195.125,354.4688 Q194.0313,353.0781 194.0313,350.0938 Q194.0313,347.5625 195.1953,345.9063 Q196.3594,344.25 198.3438,344.25 Q199.8125,344.25 200.2813,344.375 Q200.75,344.5781 200.75,344.5781 Q200.75,344.5781 200.75,344.5078 Q200.75,344.4375 201.3594,343.5156 L202.4063,347.1719 L201.0781,347.5781 Q200.6094,346.0313 199.9453,345.3672 Q199.2813,344.7031 198.2188,344.7031 Q197.8281,344.7031 197.0625,346.2344 Q196.2969,347.7656 196.2969,350.0156 Q196.2969,352.4844 196.9609,353.875 Q197.625,355.2656 198.1563,355.2656 Q199.2188,355.2656 199.9766,354.5 Q200.7344,353.7344 201.0781,352.0781 L202.4063,352.6719 Q202.0781,354.0781 201.1797,354.9688 Q200.2813,355.8594 198.0781,355.8594 Z " fill="#000000"/><text fill="#000000" font-family="sans-serif" font-size="14" lengthAdjust="spacing" textLength="57" x="213.5" y="356.9839">LeafStep</text><line style="stroke:#181818;stroke-width:0.5;" x1="185.5" x2="272.5" y1="366.5" y2="366.5"/><line style="stroke:#181818;stroke-width:0.5;" x1="185.5" x2="272.5" y1="374.5" y2="374.5"/></g><!--class StrategyLayout--><g id="elem_StrategyLayout"><rect codeLine="21" fill="#F1F1F1" height="105.3604" id="StrategyLayout" rx="2.5" ry="2.5" style="stroke:#181818;stroke-width:0.5;" width="128" x="309" y="306"/><ellipse cx="324" cy="322" fill="#B4A7E5" rx="11" ry="11" style="stroke:#181818;stroke-width:1.0;"/><path d="M320.5938,316.2813 L320.5938,315.875 L326.9063,315.875 L326.9063,316.2813 L324.375,316.2813 Q324.375,316.2813 324.5234,316.4141 Q324.6719,316.5469 324.6719,316.8125 L324.6719,326.2969 Q324.6719,326.5625 324.8906,326.6953 Q325.1094,326.8281 325.1094,326.8281 L326.9063,326.8281 L326.9063,327.2344 L320.5938,327.2344 L320.5938,326.8281 L322.125,326.8281 Q322.4531,326.8281 322.5859,326.6953 Q322.7188,326.5625 322.7188,326.2969 L322.7188,316.8125 Q322.7188,316.5469 322.5859,316.4141 Q322.4531,316.2813 322.125,316.2813 L320.5938,316.2813 Z " fill="#000000"/><text fill="#000000" font-family="sans-serif" font-size="14" font-style="italic" lengthAdjust="spacing" textLength="96" x="338" y="328.4839">StrategyLayout</text><line style="stroke:#181818;stroke-width:0.5;" x1="310" x2="436" y1="338" y2="338"/><line style="stroke:#181818;stroke-width:0.5;" x1="310" x2="436" y1="346" y2="346"/><text fill="#000000" font-family="sans-serif" font-size="14" lengthAdjust="spacing" textLength="89" x="315" y="366.0439">void calcPos()</text><text fill="#000000" font-family="sans-serif" font-size="14" lengthAdjust="spacing" textLength="91" x="315" y="385.1641">void calcSize()</text><text fill="#000000" font-family="sans-serif" font-size="14" lengthAdjust="spacing" textLength="82" x="315" y="404.2842">void render()</text></g><!--class HorizontalLayout--><g id="elem_HorizontalLayout"><rect codeLine="27" fill="#F1F1F1" height="48" id="HorizontalLayout" rx="2.5" ry="2.5" style="stroke:#181818;stroke-width:0.5;" width="137" x="304.5" y="471"/><ellipse cx="319.5" cy="487" fill="#ADD1B2" rx="11" ry="11" style="stroke:#181818;stroke-width:1.0;"/><path d="M318.0781,492.3594 Q316.2188,492.3594 315.125,490.9688 Q314.0313,489.5781 314.0313,486.5938 Q314.0313,484.0625 315.1953,482.4063 Q316.3594,480.75 318.3438,480.75 Q319.8125,480.75 320.2813,480.875 Q320.75,481.0781 320.75,481.0781 Q320.75,481.0781 320.75,481.0078 Q320.75,480.9375 321.3594,480.0156 L322.4063,483.6719 L321.0781,484.0781 Q320.6094,482.5313 319.9453,481.8672 Q319.2813,481.2031 318.2188,481.2031 Q317.8281,481.2031 317.0625,482.7344 Q316.2969,484.2656 316.2969,486.5156 Q316.2969,488.9844 316.9609,490.375 Q317.625,491.7656 318.1563,491.7656 Q319.2188,491.7656 319.9766,491 Q320.7344,490.2344 321.0781,488.5781 L322.4063,489.1719 Q322.0781,490.5781 321.1797,491.4688 Q320.2813,492.3594 318.0781,492.3594 Z " fill="#000000"/><text fill="#000000" font-family="sans-serif" font-size="14" lengthAdjust="spacing" textLength="105" x="333.5" y="493.4839">HorizontalLayout</text><line style="stroke:#181818;stroke-width:0.5;" x1="305.5" x2="440.5" y1="503" y2="503"/><line style="stroke:#181818;stroke-width:0.5;" x1="305.5" x2="440.5" y1="511" y2="511"/></g><!--reverse link BaseStep to Step--><g id="link_BaseStep_Step"><path codeLine="30" d="M156.6,237.78 C135.7,269.62 114.48,301.94 99.36,324.96 " fill="none" id="BaseStep-backto-Step" style="stroke:#181818;stroke-width:1.0;"/><polygon fill="none" points="150.97,233.6,167.8,220.72,162.68,241.28,150.97,233.6" style="stroke:#181818;stroke-width:1.0;"/></g><!--reverse link BaseStep to LeafStep--><g id="link_BaseStep_LeafStep"><path codeLine="31" d="M229,266.54 C229,292.81 229,317.33 229,334.27 " fill="none" id="BaseStep-backto-LeafStep" style="stroke:#181818;stroke-width:1.0;"/><polygon fill="none" points="222,266.21,229,246.21,236,266.21,222,266.21" style="stroke:#181818;stroke-width:1.0;"/></g><!--link BaseStep to StrategyLayout--><g id="link_BaseStep_StrategyLayout"><path codeLine="33" d="M290.07,225.04 C306.45,251.2 323.6,278.6 338.03,301.65 " fill="none" id="BaseStep-to-StrategyLayout" style="stroke:#181818;stroke-width:1.0;"/><polygon fill="#181818" points="340.69,305.9,339.2884,296.1514,338.0297,301.6664,332.5147,300.4078,340.69,305.9" style="stroke:#181818;stroke-width:1.0;"/><text fill="#000000" font-family="sans-serif" font-size="13" lengthAdjust="spacing" textLength="7" x="328.6542" y="295.2335">1</text></g><!--reverse link StrategyLayout to HorizontalLayout--><g id="link_StrategyLayout_HorizontalLayout"><path codeLine="35" d="M373,431.27 C373,445.59 373,459.63 373,470.79 " fill="none" id="StrategyLayout-backto-HorizontalLayout" style="stroke:#181818;stroke-width:1.0;"/><polygon fill="none" points="366,431.12,373,411.12,380,431.12,366,431.12" style="stroke:#181818;stroke-width:1.0;"/></g><!--SRC=[TP4nRy9038Nt-nKM4nqoi2CaEZ6WWfInwk1S3BhgUXUTdOW0-U-z1WZaeAi_l-Td6mkMW5f0MsI6TsJAXIeuAO0JNc47kGJZzY1qa37O5DyKrHPRNqkgYJuL1d89-AX_2WfWN4c7byHIGtPC6czAq6ZrrlFqxH-McoEzX353IU62M52Cxc3fsYXo3V9ZDIwAGljstIy4R5MdrEKsmrrkH_hy0gxZ8AhuthKct5qxOyqueR13JQdndy_JJi-BZDCFGrO-cADtWdQmYsnutloSPNtSf7JBzj2QPGkOp2P9FAMIkBqydVeB]--></g></svg>