<?xml version="1.0" encoding="us-ascii" standalone="no"?><svg xmlns="http://www.w3.org/2000/svg" xmlns:xlink="http://www.w3.org/1999/xlink" contentStyleType="text/css" height="488px" preserveAspectRatio="none" style="width:870px;height:488px;background:#FFFFFF;" version="1.1" viewBox="0 0 870 488" width="870px" zoomAndPan="magnify"><defs/><g><!--class BaseStep--><g id="elem_BaseStep"><rect codeLine="1" fill="#F1F1F1" height="181.8408" id="BaseStep" rx="2.5" ry="2.5" style="stroke:#181818;stroke-width:0.5;" width="117" x="164.5" y="172"/><ellipse cx="190.3" cy="188" fill="#A9DCDF" rx="11" ry="11" style="stroke:#181818;stroke-width:1.0;"/><path d="M190.675,187.9844 L188.6906,187.9844 L188.0969,190.5 Q188.0344,190.8438 188.0344,191.0313 Q188.0344,191.2969 188.1281,191.5625 Q188.2219,191.8281 188.2219,191.8281 L188.8938,191.8281 L188.8938,192.2344 L185.4406,192.2344 L185.4406,191.8281 L185.6281,191.8281 Q185.8938,191.8281 186.0969,191.6641 Q186.3,191.5 186.3625,191.1094 L188.9563,180.9375 L190.8313,180.3281 L193.4719,191.1094 Q193.6125,191.5 193.8078,191.6641 Q194.0031,191.8281 194.0031,191.8281 L194.4719,191.8281 L194.4719,192.2344 L190.6125,192.2344 L190.6125,191.8281 L190.8781,191.8281 Q191.2844,191.8281 191.3469,191.6641 Q191.4094,191.5 191.4094,191.375 Q191.4094,191.1094 191.3469,190.9063 L190.675,187.9844 Z M189.2844,182.0781 L189.2844,182.0781 L188.8313,187.5781 L190.6125,187.5781 L189.2844,182.0781 Z " fill="#000000"/><text fill="#000000" font-family="sans-serif" font-size="14" font-style="italic" lengthAdjust="spacing" textLength="61" x="206.7" y="194.4839">BaseStep</text><line style="stroke:#181818;stroke-width:0.5;" x1="165.5" x2="280.5" y1="204" y2="204"/><text fill="#000000" font-family="sans-serif" font-size="14" font-style="italic" lengthAdjust="spacing" textLength="63" x="170.5" y="224.0439">String text</text><text fill="#000000" font-family="sans-serif" font-size="14" font-style="italic" lengthAdjust="spacing" textLength="105" x="170.5" y="243.1641">String[] textRows</text><text fill="#000000" font-family="sans-serif" font-size="14" font-style="italic" lengthAdjust="spacing" textLength="83" x="170.5" y="262.2842">Object layout</text><text fill="#000000" font-family="sans-serif" font-size="14" font-style="italic" lengthAdjust="spacing" textLength="74" x="170.5" y="281.4043">Step parent</text><text fill="#000000" font-family="sans-serif" font-size="14" font-style="italic" lengthAdjust="spacing" textLength="87" x="170.5" y="300.5244">Number index</text><text fill="#000000" font-family="sans-serif" font-size="14" font-style="italic" lengthAdjust="spacing" textLength="82" x="170.5" y="319.6445">Number level</text><text fill="#000000" font-family="sans-serif" font-size="14" lengthAdjust="spacing" text-decoration="underline" textLength="73" x="170.5" y="338.7646">Any canvas</text><line style="stroke:#181818;stroke-width:0.5;" x1="165.5" x2="280.5" y1="345.8408" y2="345.8408"/></g><!--class Step--><g id="elem_Step"><rect codeLine="11" fill="#F1F1F1" height="67.1201" id="Step" rx="2.5" ry="2.5" style="stroke:#181818;stroke-width:0.5;" width="142" x="7" y="414"/><ellipse cx="59.25" cy="430" fill="#ADD1B2" rx="11" ry="11" style="stroke:#181818;stroke-width:1.0;"/><path d="M57.8281,435.3594 Q55.9688,435.3594 54.875,433.9688 Q53.7813,432.5781 53.7813,429.5938 Q53.7813,427.0625 54.9453,425.4063 Q56.1094,423.75 58.0938,423.75 Q59.5625,423.75 60.0313,423.875 Q60.5,424.0781 60.5,424.0781 Q60.5,424.0781 60.5,424.0078 Q60.5,423.9375 61.1094,423.0156 L62.1563,426.6719 L60.8281,427.0781 Q60.3594,425.5313 59.6953,424.8672 Q59.0313,424.2031 57.9688,424.2031 Q57.5781,424.2031 56.8125,425.7344 Q56.0469,427.2656 56.0469,429.5156 Q56.0469,431.9844 56.7109,433.375 Q57.375,434.7656 57.9063,434.7656 Q58.9688,434.7656 59.7266,434 Q60.4844,433.2344 60.8281,431.5781 L62.1563,432.1719 Q61.8281,433.5781 60.9297,434.4688 Q60.0313,435.3594 57.8281,435.3594 Z " fill="#000000"/><text fill="#000000" font-family="sans-serif" font-size="14" lengthAdjust="spacing" textLength="29" x="79.75" y="436.4839">Step</text><line style="stroke:#181818;stroke-width:0.5;" x1="8" x2="148" y1="446" y2="446"/><text fill="#000000" font-family="sans-serif" font-size="14" lengthAdjust="spacing" textLength="130" x="13" y="466.0439">BaseStep[] substeps</text><line style="stroke:#181818;stroke-width:0.5;" x1="8" x2="148" y1="473.1201" y2="473.1201"/></g><!--class LeafStep--><g id="elem_LeafStep"><rect codeLine="15" fill="#F1F1F1" height="48" id="LeafStep" rx="2.5" ry="2.5" style="stroke:#181818;stroke-width:0.5;" width="89" x="184.5" y="423.5"/><ellipse cx="199.5" cy="439.5" fill="#ADD1B2" rx="11" ry="11" style="stroke:#181818;stroke-width:1.0;"/><path d="M198.0781,444.8594 Q196.2188,444.8594 195.125,443.4688 Q194.0313,442.0781 194.0313,439.0938 Q194.0313,436.5625 195.1953,434.9063 Q196.3594,433.25 198.3438,433.25 Q199.8125,433.25 200.2813,433.375 Q200.75,433.5781 200.75,433.5781 Q200.75,433.5781 200.75,433.5078 Q200.75,433.4375 201.3594,432.5156 L202.4063,436.1719 L201.0781,436.5781 Q200.6094,435.0313 199.9453,434.3672 Q199.2813,433.7031 198.2188,433.7031 Q197.8281,433.7031 197.0625,435.2344 Q196.2969,436.7656 196.2969,439.0156 Q196.2969,441.4844 196.9609,442.875 Q197.625,444.2656 198.1563,444.2656 Q199.2188,444.2656 199.9766,443.5 Q200.7344,442.7344 201.0781,441.0781 L202.4063,441.6719 Q202.0781,443.0781 201.1797,443.9688 Q200.2813,444.8594 198.0781,444.8594 Z " fill="#000000"/><text fill="#000000" font-family="sans-serif" font-size="14" lengthAdjust="spacing" textLength="57" x="213.5" y="445.9839">LeafStep</text><line style="stroke:#181818;stroke-width:0.5;" x1="185.5" x2="272.5" y1="455.5" y2="455.5"/><line style="stroke:#181818;stroke-width:0.5;" x1="185.5" x2="272.5" y1="463.5" y2="463.5"/></g><!--class StrategyLayout--><g id="elem_StrategyLayout"><rect codeLine="18" fill="#F1F1F1" height="124.4805" id="StrategyLayout" rx="2.5" ry="2.5" style="stroke:#181818;stroke-width:0.5;" width="131" x="316.5" y="201"/><ellipse cx="332.85" cy="217" fill="#B4A7E5" rx="11" ry="11" style="stroke:#181818;stroke-width:1.0;"/><path d="M329.4438,211.2813 L329.4438,210.875 L335.7563,210.875 L335.7563,211.2813 L333.225,211.2813 Q333.225,211.2813 333.3734,211.4141 Q333.5219,211.5469 333.5219,211.8125 L333.5219,221.2969 Q333.5219,221.5625 333.7406,221.6953 Q333.9594,221.8281 333.9594,221.8281 L335.7563,221.8281 L335.7563,222.2344 L329.4438,222.2344 L329.4438,221.8281 L330.975,221.8281 Q331.3031,221.8281 331.4359,221.6953 Q331.5688,221.5625 331.5688,221.2969 L331.5688,211.8125 Q331.5688,211.5469 331.4359,211.4141 Q331.3031,211.2813 330.975,211.2813 L329.4438,211.2813 Z " fill="#000000"/><text fill="#000000" font-family="sans-serif" font-size="14" font-style="italic" lengthAdjust="spacing" textLength="96" x="347.15" y="223.4839">StrategyLayout</text><line style="stroke:#181818;stroke-width:0.5;" x1="317.5" x2="446.5" y1="233" y2="233"/><line style="stroke:#181818;stroke-width:0.5;" x1="317.5" x2="446.5" y1="241" y2="241"/><text fill="#000000" font-family="sans-serif" font-size="14" lengthAdjust="spacing" textLength="91" x="322.5" y="261.0439">void calcSize()</text><text fill="#000000" font-family="sans-serif" font-size="14" lengthAdjust="spacing" textLength="119" x="322.5" y="280.1641">void calcSizeLeaf()</text><text fill="#000000" font-family="sans-serif" font-size="14" lengthAdjust="spacing" textLength="89" x="322.5" y="299.2842">void calcPos()</text><text fill="#000000" font-family="sans-serif" font-size="14" lengthAdjust="spacing" textLength="82" x="322.5" y="318.4043">void render()</text></g><!--class HorizontalLayout--><g id="elem_HorizontalLayout"><rect codeLine="25" fill="#F1F1F1" height="48" id="HorizontalLayout" rx="2.5" ry="2.5" style="stroke:#181818;stroke-width:0.5;" width="137" x="313.5" y="423.5"/><ellipse cx="328.5" cy="439.5" fill="#ADD1B2" rx="11" ry="11" style="stroke:#181818;stroke-width:1.0;"/><path d="M327.0781,444.8594 Q325.2188,444.8594 324.125,443.4688 Q323.0313,442.0781 323.0313,439.0938 Q323.0313,436.5625 324.1953,434.9063 Q325.3594,433.25 327.3438,433.25 Q328.8125,433.25 329.2813,433.375 Q329.75,433.5781 329.75,433.5781 Q329.75,433.5781 329.75,433.5078 Q329.75,433.4375 330.3594,432.5156 L331.4063,436.1719 L330.0781,436.5781 Q329.6094,435.0313 328.9453,434.3672 Q328.2813,433.7031 327.2188,433.7031 Q326.8281,433.7031 326.0625,435.2344 Q325.2969,436.7656 325.2969,439.0156 Q325.2969,441.4844 325.9609,442.875 Q326.625,444.2656 327.1563,444.2656 Q328.2188,444.2656 328.9766,443.5 Q329.7344,442.7344 330.0781,441.0781 L331.4063,441.6719 Q331.0781,443.0781 330.1797,443.9688 Q329.2813,444.8594 327.0781,444.8594 Z " fill="#000000"/><text fill="#000000" font-family="sans-serif" font-size="14" lengthAdjust="spacing" textLength="105" x="342.5" y="445.9839">HorizontalLayout</text><line style="stroke:#181818;stroke-width:0.5;" x1="314.5" x2="449.5" y1="455.5" y2="455.5"/><line style="stroke:#181818;stroke-width:0.5;" x1="314.5" x2="449.5" y1="463.5" y2="463.5"/></g><!--class Element--><g id="elem_Element"><rect codeLine="28" fill="#F1F1F1" height="67.1201" id="Element" rx="2.5" ry="2.5" style="stroke:#181818;stroke-width:0.5;" width="136" x="155" y="26"/><ellipse cx="193.85" cy="42" fill="#B4A7E5" rx="11" ry="11" style="stroke:#181818;stroke-width:1.0;"/><path d="M190.4438,36.2813 L190.4438,35.875 L196.7563,35.875 L196.7563,36.2813 L194.225,36.2813 Q194.225,36.2813 194.3734,36.4141 Q194.5219,36.5469 194.5219,36.8125 L194.5219,46.2969 Q194.5219,46.5625 194.7406,46.6953 Q194.9594,46.8281 194.9594,46.8281 L196.7563,46.8281 L196.7563,47.2344 L190.4438,47.2344 L190.4438,46.8281 L191.975,46.8281 Q192.3031,46.8281 192.4359,46.6953 Q192.5688,46.5625 192.5688,46.2969 L192.5688,36.8125 Q192.5688,36.5469 192.4359,36.4141 Q192.3031,36.2813 191.975,36.2813 L190.4438,36.2813 Z " fill="#000000"/><text fill="#000000" font-family="sans-serif" font-size="14" font-style="italic" lengthAdjust="spacing" textLength="51" x="213.15" y="48.4839">Element</text><line style="stroke:#181818;stroke-width:0.5;" x1="156" x2="290" y1="58" y2="58"/><line style="stroke:#181818;stroke-width:0.5;" x1="156" x2="290" y1="66" y2="66"/><text fill="#000000" font-family="sans-serif" font-size="14" lengthAdjust="spacing" textLength="124" x="161" y="86.0439">void accept(IVisitor)</text></g><!--class IVisitor--><g id="elem_IVisitor"><rect codeLine="32" fill="#F1F1F1" height="105.3604" id="IVisitor" rx="2.5" ry="2.5" style="stroke:#181818;stroke-width:0.5;" width="190" x="381" y="7"/><ellipse cx="450.25" cy="23" fill="#B4A7E5" rx="11" ry="11" style="stroke:#181818;stroke-width:1.0;"/><path d="M446.8438,17.2813 L446.8438,16.875 L453.1563,16.875 L453.1563,17.2813 L450.625,17.2813 Q450.625,17.2813 450.7734,17.4141 Q450.9219,17.5469 450.9219,17.8125 L450.9219,27.2969 Q450.9219,27.5625 451.1406,27.6953 Q451.3594,27.8281 451.3594,27.8281 L453.1563,27.8281 L453.1563,28.2344 L446.8438,28.2344 L446.8438,27.8281 L448.375,27.8281 Q448.7031,27.8281 448.8359,27.6953 Q448.9688,27.5625 448.9688,27.2969 L448.9688,17.8125 Q448.9688,17.5469 448.8359,17.4141 Q448.7031,17.2813 448.375,17.2813 L446.8438,17.2813 Z " fill="#000000"/><text fill="#000000" font-family="sans-serif" font-size="14" font-style="italic" lengthAdjust="spacing" textLength="43" x="470.75" y="29.4839">IVisitor</text><line style="stroke:#181818;stroke-width:0.5;" x1="382" x2="570" y1="39" y2="39"/><text fill="#000000" font-family="sans-serif" font-size="14" lengthAdjust="spacing" textLength="110" x="387" y="59.0439">StrategyLayout sl</text><line style="stroke:#181818;stroke-width:0.5;" x1="382" x2="570" y1="66.1201" y2="66.1201"/><text fill="#000000" font-family="sans-serif" font-size="14" lengthAdjust="spacing" textLength="122" x="387" y="86.1641">void visitStep(Step)</text><text fill="#000000" font-family="sans-serif" font-size="14" lengthAdjust="spacing" textLength="178" x="387" y="105.2842">void visitLeafStep(LeafStep)</text></g><!--class SizeVisitor--><g id="elem_SizeVisitor"><rect codeLine="38" fill="#F1F1F1" height="48" id="SizeVisitor" rx="2.5" ry="2.5" style="stroke:#181818;stroke-width:0.5;" width="97" x="482.5" y="239"/><ellipse cx="497.5" cy="255" fill="#ADD1B2" rx="11" ry="11" style="stroke:#181818;stroke-width:1.0;"/><path d="M496.0781,260.3594 Q494.2188,260.3594 493.125,258.9688 Q492.0313,257.5781 492.0313,254.5938 Q492.0313,252.0625 493.1953,250.4063 Q494.3594,248.75 496.3438,248.75 Q497.8125,248.75 498.2813,248.875 Q498.75,249.0781 498.75,249.0781 Q498.75,249.0781 498.75,249.0078 Q498.75,248.9375 499.3594,248.0156 L500.4063,251.6719 L499.0781,252.0781 Q498.6094,250.5313 497.9453,249.8672 Q497.2813,249.2031 496.2188,249.2031 Q495.8281,249.2031 495.0625,250.7344 Q494.2969,252.2656 494.2969,254.5156 Q494.2969,256.9844 494.9609,258.375 Q495.625,259.7656 496.1563,259.7656 Q497.2188,259.7656 497.9766,259 Q498.7344,258.2344 499.0781,256.5781 L500.4063,257.1719 Q500.0781,258.5781 499.1797,259.4688 Q498.2813,260.3594 496.0781,260.3594 Z " fill="#000000"/><text fill="#000000" font-family="sans-serif" font-size="14" lengthAdjust="spacing" textLength="65" x="511.5" y="261.4839">SizeVisitor</text><line style="stroke:#181818;stroke-width:0.5;" x1="483.5" x2="578.5" y1="271" y2="271"/><line style="stroke:#181818;stroke-width:0.5;" x1="483.5" x2="578.5" y1="279" y2="279"/></g><!--class PosVisitor--><g id="elem_PosVisitor"><rect codeLine="39" fill="#F1F1F1" height="48" id="PosVisitor" rx="2.5" ry="2.5" style="stroke:#181818;stroke-width:0.5;" width="95" x="614.5" y="239"/><ellipse cx="629.5" cy="255" fill="#ADD1B2" rx="11" ry="11" style="stroke:#181818;stroke-width:1.0;"/><path d="M628.0781,260.3594 Q626.2188,260.3594 625.125,258.9688 Q624.0313,257.5781 624.0313,254.5938 Q624.0313,252.0625 625.1953,250.4063 Q626.3594,248.75 628.3438,248.75 Q629.8125,248.75 630.2813,248.875 Q630.75,249.0781 630.75,249.0781 Q630.75,249.0781 630.75,249.0078 Q630.75,248.9375 631.3594,248.0156 L632.4063,251.6719 L631.0781,252.0781 Q630.6094,250.5313 629.9453,249.8672 Q629.2813,249.2031 628.2188,249.2031 Q627.8281,249.2031 627.0625,250.7344 Q626.2969,252.2656 626.2969,254.5156 Q626.2969,256.9844 626.9609,258.375 Q627.625,259.7656 628.1563,259.7656 Q629.2188,259.7656 629.9766,259 Q630.7344,258.2344 631.0781,256.5781 L632.4063,257.1719 Q632.0781,258.5781 631.1797,259.4688 Q630.2813,260.3594 628.0781,260.3594 Z " fill="#000000"/><text fill="#000000" font-family="sans-serif" font-size="14" lengthAdjust="spacing" textLength="63" x="643.5" y="261.4839">PosVisitor</text><line style="stroke:#181818;stroke-width:0.5;" x1="615.5" x2="708.5" y1="271" y2="271"/><line style="stroke:#181818;stroke-width:0.5;" x1="615.5" x2="708.5" y1="279" y2="279"/></g><!--class RenderVisitor--><g id="elem_RenderVisitor"><rect codeLine="40" fill="#F1F1F1" height="48" id="RenderVisitor" rx="2.5" ry="2.5" style="stroke:#181818;stroke-width:0.5;" width="118" x="745" y="239"/><ellipse cx="760" cy="255" fill="#ADD1B2" rx="11" ry="11" style="stroke:#181818;stroke-width:1.0;"/><path d="M758.5781,260.3594 Q756.7188,260.3594 755.625,258.9688 Q754.5313,257.5781 754.5313,254.5938 Q754.5313,252.0625 755.6953,250.4063 Q756.8594,248.75 758.8438,248.75 Q760.3125,248.75 760.7813,248.875 Q761.25,249.0781 761.25,249.0781 Q761.25,249.0781 761.25,249.0078 Q761.25,248.9375 761.8594,248.0156 L762.9063,251.6719 L761.5781,252.0781 Q761.1094,250.5313 760.4453,249.8672 Q759.7813,249.2031 758.7188,249.2031 Q758.3281,249.2031 757.5625,250.7344 Q756.7969,252.2656 756.7969,254.5156 Q756.7969,256.9844 757.4609,258.375 Q758.125,259.7656 758.6563,259.7656 Q759.7188,259.7656 760.4766,259 Q761.2344,258.2344 761.5781,256.5781 L762.9063,257.1719 Q762.5781,258.5781 761.6797,259.4688 Q760.7813,260.3594 758.5781,260.3594 Z " fill="#000000"/><text fill="#000000" font-family="sans-serif" font-size="14" lengthAdjust="spacing" textLength="86" x="774" y="261.4839">RenderVisitor</text><line style="stroke:#181818;stroke-width:0.5;" x1="746" x2="862" y1="271" y2="271"/><line style="stroke:#181818;stroke-width:0.5;" x1="746" x2="862" y1="279" y2="279"/></g><!--reverse link BaseStep to Step--><g id="link_BaseStep_Step"><path codeLine="42" d="M151.97,353.4 C134.73,375.09 117.39,396.92 103.83,413.99 " fill="none" id="BaseStep-backto-Step" style="stroke:#181818;stroke-width:1.0;"/><polygon fill="none" points="146.52,349.01,164.44,337.7,157.48,357.72,146.52,349.01" style="stroke:#181818;stroke-width:1.0;"/></g><!--reverse link BaseStep to LeafStep--><g id="link_BaseStep_LeafStep"><path codeLine="43" d="M226.62,374.22 C227.24,392.82 227.81,410.31 228.24,423.43 " fill="none" id="BaseStep-backto-LeafStep" style="stroke:#181818;stroke-width:1.0;"/><polygon fill="none" points="219.63,374.4,225.96,354.18,233.62,373.94,219.63,374.4" style="stroke:#181818;stroke-width:1.0;"/></g><!--reverse link Element to BaseStep--><g id="link_Element_BaseStep"><path codeLine="45" d="M223,113.6 C223,131.45 223,151.89 223,171.79 " fill="none" id="Element-backto-BaseStep" style="stroke:#181818;stroke-width:1.0;"/><polygon fill="none" points="216,113.32,223,93.32,230,113.32,216,113.32" style="stroke:#181818;stroke-width:1.0;"/></g><!--link IVisitor to StrategyLayout--><g id="link_IVisitor_StrategyLayout"><path codeLine="47" d="M451.91,112.13 C439.98,137.7 425.45,168.87 412.72,196.14 " fill="none" id="IVisitor-to-StrategyLayout" style="stroke:#181818;stroke-width:1.0;"/><polygon fill="#181818" points="410.54,200.83,417.964,194.3582,412.6497,196.2969,410.7111,190.9826,410.54,200.83" style="stroke:#181818;stroke-width:1.0;"/><text fill="#000000" font-family="sans-serif" font-size="13" lengthAdjust="spacing" textLength="7" x="406.5918" y="190.1317">1</text></g><!--link IVisitor to BaseStep--><g id="link_IVisitor_BaseStep"><path codeLine="48" d="M380.88,103.4 C349.15,121.58 314.69,144.22 285.44,169.05 " fill="none" id="IVisitor-to-BaseStep" style="stroke:#181818;stroke-width:1.0;"/><polygon fill="#181818" points="281.54,172.4,290.9712,169.5623,285.3302,169.139,285.7536,163.498,281.54,172.4" style="stroke:#181818;stroke-width:1.0;"/><text fill="#000000" font-family="sans-serif" font-size="13" lengthAdjust="spacing" textLength="22" x="287.9507" y="161.2043">visit</text></g><!--reverse link IVisitor to BaseStep--><g id="link_IVisitor_BaseStep"><path codeLine="49" d="M394.87,115.03 C368.9,131.76 340.83,151.27 317,172 C304.81,182.6 292.91,195.23 281.74,207.63 " fill="none" id="IVisitor-backto-BaseStep" style="stroke:#181818;stroke-width:1.0;"/><polygon fill="#181818" points="399.35,112.15,389.6164,113.6521,395.1441,114.8538,393.9424,120.3815,399.35,112.15" style="stroke:#181818;stroke-width:1.0;"/><text fill="#000000" font-family="sans-serif" font-size="13" lengthAdjust="spacing" textLength="39" x="280.0812" y="190.3201">accept</text></g><!--reverse link IVisitor to SizeVisitor--><g id="link_IVisitor_SizeVisitor"><path codeLine="50" d="M495.42,131.64 C505.66,169.15 517.54,212.67 524.65,238.74 " fill="none" id="IVisitor-backto-SizeVisitor" style="stroke:#181818;stroke-width:1.0;"/><polygon fill="none" points="488.61,133.27,490.09,112.13,502.11,129.58,488.61,133.27" style="stroke:#181818;stroke-width:1.0;"/></g><!--reverse link IVisitor to PosVisitor--><g id="link_IVisitor_PosVisitor"><path codeLine="51" d="M551.55,125.76 C567.15,140.42 583.06,156.29 597,172 C615.93,193.34 634.7,220.08 647.17,238.85 " fill="none" id="IVisitor-backto-PosVisitor" style="stroke:#181818;stroke-width:1.0;"/><polygon fill="none" points="546.72,130.83,536.76,112.12,556.21,120.53,546.72,130.83" style="stroke:#181818;stroke-width:1.0;"/></g><!--reverse link IVisitor to RenderVisitor--><g id="link_IVisitor_RenderVisitor"><path codeLine="52" d="M589.72,98.53 C634.92,116.73 685.85,141.32 727,172 C752.06,190.68 774.51,218.91 788.61,238.76 " fill="none" id="IVisitor-backto-RenderVisitor" style="stroke:#181818;stroke-width:1.0;"/><polygon fill="none" points="587.16,105.04,571.08,91.25,592.25,92,587.16,105.04" style="stroke:#181818;stroke-width:1.0;"/></g><!--reverse link StrategyLayout to HorizontalLayout--><g id="link_StrategyLayout_HorizontalLayout"><path codeLine="54" d="M382,345.37 C382,373.85 382,403.62 382,423.43 " fill="none" id="StrategyLayout-backto-HorizontalLayout" style="stroke:#181818;stroke-width:1.0;"/><polygon fill="none" points="375,345.02,382,325.02,389,345.02,375,345.02" style="stroke:#181818;stroke-width:1.0;"/></g><!--SRC=[RP8_QyCm4CLtVGhXoHayT0-55WejbBOaqALqk2YNeA98Hhgu-LD_zqfA9CTA5cE_ztHtlvDXuSY282uKECSVmU6SiEL7nlaHpcRFvsIbNdF27TqolhwZDJE_Rco_BtxG5rUmDzkhaxvD2nPrORnjDmkqNEebxcuw2ZjKmN4494NF7_IU2z0TEDOpTYB950d9p-YslXIs5wbNXDKvwJMf2UqA10Oi85plN-FWiKvdvD9tKM8k3rXFIYLK6giVnWs2nroYzT-vzREnyc0qWSfDHYCyATputGozGGXigNxvb4wIiPDnFCb3lWj2WAl3OpAI4tUTNe9TG3jriKrFc1lqPz43Nccpo7aXi_nBJV-Q9bvB8QKH64l8KKuXnZ9Qqzppwgug1Ytyo5SDnxCxzKMhqn9lsd6yWRDm1jZ2614pLYmnHigh_WS0]--></g></svg>